<mxfile host="app.diagrams.net" agent="Mozilla/5.0 (Windows NT 10.0; Win64; x64) AppleWebKit/537.36 (KHTML, like Gecko) Chrome/140.0.0.0 Safari/537.36" version="28.2.5">
  <diagram name="Page-1" id="WwWCU1mMd6vzGCUQ_W4N">
    <mxGraphModel dx="786" dy="469" grid="1" gridSize="10" guides="1" tooltips="1" connect="1" arrows="1" fold="1" page="1" pageScale="1" pageWidth="850" pageHeight="1100" math="0" shadow="0">
      <root>
        <mxCell id="0" />
        <mxCell id="1" parent="0" />
        <mxCell id="LIOro2nzg90wckjojLs--3" value="" style="endArrow=none;dashed=1;html=1;rounded=0;entryX=1;entryY=0.5;entryDx=0;entryDy=0;" parent="1" edge="1">
          <mxGeometry width="50" height="50" relative="1" as="geometry">
            <mxPoint x="600" y="215" as="sourcePoint" />
            <mxPoint x="570" y="215" as="targetPoint" />
            <Array as="points">
              <mxPoint x="591" y="215" />
            </Array>
          </mxGeometry>
        </mxCell>
        <mxCell id="LIOro2nzg90wckjojLs--4" value="&lt;b&gt;PROCESSING ELEMENT&lt;/b&gt;" style="whiteSpace=wrap;html=1;fillColor=light-dark(#cde1ec, #ededed);" parent="1" vertex="1">
          <mxGeometry x="611" y="200" width="159" height="30" as="geometry" />
        </mxCell>
        <mxCell id="LIOro2nzg90wckjojLs--5" value="&lt;b&gt;PROCESSING ELEMENT&lt;/b&gt;" style="whiteSpace=wrap;html=1;fillColor=light-dark(#cde1ec, #ededed);" parent="1" vertex="1">
          <mxGeometry x="400" y="200" width="160" height="30" as="geometry" />
        </mxCell>
        <mxCell id="LIOro2nzg90wckjojLs--9" value="&lt;b&gt;PROCESSING ELEMENT&lt;/b&gt;" style="whiteSpace=wrap;html=1;fillColor=light-dark(#cde1ec, #ededed);" parent="1" vertex="1">
          <mxGeometry x="200" y="200" width="160" height="30" as="geometry" />
        </mxCell>
        <mxCell id="LIOro2nzg90wckjojLs--10" value="&lt;b&gt;Decoder&lt;/b&gt;&lt;div&gt;&lt;b&gt;Weights&lt;/b&gt;&lt;/div&gt;" style="whiteSpace=wrap;html=1;fillColor=#e1d5e7;strokeColor=#9673a6;" parent="1" vertex="1">
          <mxGeometry x="200" y="260" width="70" height="30" as="geometry" />
        </mxCell>
        <mxCell id="LIOro2nzg90wckjojLs--11" value="&lt;b style=&quot;&quot;&gt;&lt;font&gt;Decoder Activations&lt;/font&gt;&lt;/b&gt;" style="whiteSpace=wrap;html=1;fillColor=#e1d5e7;strokeColor=#9673a6;" parent="1" vertex="1">
          <mxGeometry x="289" y="260" width="71" height="30" as="geometry" />
        </mxCell>
        <mxCell id="LIOro2nzg90wckjojLs--12" value="&lt;b&gt;Decoder&lt;/b&gt;&lt;div&gt;&lt;b&gt;weights&lt;/b&gt;&lt;/div&gt;" style="whiteSpace=wrap;html=1;fillColor=#e1d5e7;strokeColor=#9673a6;" parent="1" vertex="1">
          <mxGeometry x="400" y="260" width="70" height="30" as="geometry" />
        </mxCell>
        <mxCell id="LIOro2nzg90wckjojLs--13" value="&lt;b style=&quot;&quot;&gt;&lt;font&gt;Decoder Activations&lt;/font&gt;&lt;/b&gt;" style="whiteSpace=wrap;html=1;fillColor=#e1d5e7;strokeColor=#9673a6;" parent="1" vertex="1">
          <mxGeometry x="489" y="260" width="71" height="30" as="geometry" />
        </mxCell>
        <mxCell id="LIOro2nzg90wckjojLs--14" value="&lt;b&gt;Decoder&lt;/b&gt;&lt;div&gt;&lt;b&gt;weights&lt;/b&gt;&lt;/div&gt;" style="whiteSpace=wrap;html=1;fillColor=#e1d5e7;strokeColor=#9673a6;" parent="1" vertex="1">
          <mxGeometry x="611" y="260" width="70" height="30" as="geometry" />
        </mxCell>
        <mxCell id="LIOro2nzg90wckjojLs--15" value="&lt;b style=&quot;&quot;&gt;&lt;font&gt;Decoder Activations&lt;/font&gt;&lt;/b&gt;" style="whiteSpace=wrap;html=1;fillColor=#e1d5e7;strokeColor=#9673a6;" parent="1" vertex="1">
          <mxGeometry x="700" y="260" width="71" height="30" as="geometry" />
        </mxCell>
        <mxCell id="LIOro2nzg90wckjojLs--16" value="" style="endArrow=none;dashed=1;html=1;rounded=0;entryX=1;entryY=0.5;entryDx=0;entryDy=0;" parent="1" edge="1">
          <mxGeometry width="50" height="50" relative="1" as="geometry">
            <mxPoint x="601" y="272" as="sourcePoint" />
            <mxPoint x="571" y="272" as="targetPoint" />
            <Array as="points">
              <mxPoint x="592" y="272" />
            </Array>
          </mxGeometry>
        </mxCell>
        <mxCell id="LIOro2nzg90wckjojLs--17" value="" style="endArrow=classic;startArrow=none;html=1;rounded=0;entryX=0.75;entryY=1;entryDx=0;entryDy=0;exitX=0.435;exitY=-0.017;exitDx=0;exitDy=0;exitPerimeter=0;startFill=0;" parent="1" edge="1">
          <mxGeometry width="50" height="50" relative="1" as="geometry">
            <mxPoint x="324.885" y="259.49" as="sourcePoint" />
            <mxPoint x="325" y="230" as="targetPoint" />
          </mxGeometry>
        </mxCell>
        <mxCell id="LIOro2nzg90wckjojLs--18" value="" style="endArrow=classic;startArrow=none;html=1;rounded=0;entryX=0.75;entryY=1;entryDx=0;entryDy=0;exitX=0.435;exitY=-0.017;exitDx=0;exitDy=0;exitPerimeter=0;startFill=0;" parent="1" edge="1">
          <mxGeometry width="50" height="50" relative="1" as="geometry">
            <mxPoint x="524.16" y="259" as="sourcePoint" />
            <mxPoint x="524.16" y="230" as="targetPoint" />
          </mxGeometry>
        </mxCell>
        <mxCell id="LIOro2nzg90wckjojLs--19" value="" style="endArrow=classic;startArrow=none;html=1;rounded=0;entryX=0.75;entryY=1;entryDx=0;entryDy=0;exitX=0.435;exitY=-0.017;exitDx=0;exitDy=0;exitPerimeter=0;startFill=0;" parent="1" edge="1">
          <mxGeometry width="50" height="50" relative="1" as="geometry">
            <mxPoint x="736" y="260" as="sourcePoint" />
            <mxPoint x="736" y="231" as="targetPoint" />
          </mxGeometry>
        </mxCell>
        <mxCell id="LIOro2nzg90wckjojLs--23" value="" style="endArrow=classic;startArrow=none;html=1;rounded=0;entryX=0.75;entryY=1;entryDx=0;entryDy=0;exitX=0.435;exitY=-0.017;exitDx=0;exitDy=0;exitPerimeter=0;startFill=0;" parent="1" edge="1">
          <mxGeometry width="50" height="50" relative="1" as="geometry">
            <mxPoint x="238" y="259.49" as="sourcePoint" />
            <mxPoint x="238.115" y="230" as="targetPoint" />
          </mxGeometry>
        </mxCell>
        <mxCell id="LIOro2nzg90wckjojLs--24" value="" style="endArrow=classic;startArrow=none;html=1;rounded=0;entryX=0.75;entryY=1;entryDx=0;entryDy=0;exitX=0.435;exitY=-0.017;exitDx=0;exitDy=0;exitPerimeter=0;startFill=0;" parent="1" edge="1">
          <mxGeometry width="50" height="50" relative="1" as="geometry">
            <mxPoint x="438" y="259.49" as="sourcePoint" />
            <mxPoint x="438.115" y="230" as="targetPoint" />
          </mxGeometry>
        </mxCell>
        <mxCell id="LIOro2nzg90wckjojLs--25" value="" style="endArrow=classic;startArrow=none;html=1;rounded=0;entryX=0.75;entryY=1;entryDx=0;entryDy=0;exitX=0.435;exitY=-0.017;exitDx=0;exitDy=0;exitPerimeter=0;startFill=0;" parent="1" edge="1">
          <mxGeometry width="50" height="50" relative="1" as="geometry">
            <mxPoint x="647" y="259.49" as="sourcePoint" />
            <mxPoint x="647.115" y="230" as="targetPoint" />
          </mxGeometry>
        </mxCell>
        <mxCell id="LIOro2nzg90wckjojLs--26" value="" style="endArrow=classic;startArrow=none;html=1;rounded=0;entryX=0.75;entryY=1;entryDx=0;entryDy=0;exitX=0.435;exitY=-0.017;exitDx=0;exitDy=0;exitPerimeter=0;startFill=0;" parent="1" edge="1">
          <mxGeometry width="50" height="50" relative="1" as="geometry">
            <mxPoint x="325.115" y="290" as="sourcePoint" />
            <mxPoint x="325" y="319.49" as="targetPoint" />
          </mxGeometry>
        </mxCell>
        <mxCell id="LIOro2nzg90wckjojLs--27" value="" style="endArrow=classic;startArrow=none;html=1;rounded=0;entryX=0.75;entryY=1;entryDx=0;entryDy=0;exitX=0.435;exitY=-0.017;exitDx=0;exitDy=0;exitPerimeter=0;startFill=0;" parent="1" edge="1">
          <mxGeometry width="50" height="50" relative="1" as="geometry">
            <mxPoint x="524.115" y="291" as="sourcePoint" />
            <mxPoint x="524" y="320.49" as="targetPoint" />
          </mxGeometry>
        </mxCell>
        <mxCell id="LIOro2nzg90wckjojLs--28" value="" style="endArrow=classic;startArrow=none;html=1;rounded=0;entryX=0.75;entryY=1;entryDx=0;entryDy=0;exitX=0.435;exitY=-0.017;exitDx=0;exitDy=0;exitPerimeter=0;startFill=0;" parent="1" edge="1">
          <mxGeometry width="50" height="50" relative="1" as="geometry">
            <mxPoint x="735.115" y="291" as="sourcePoint" />
            <mxPoint x="735" y="320.49" as="targetPoint" />
          </mxGeometry>
        </mxCell>
        <mxCell id="LIOro2nzg90wckjojLs--30" value="" style="endArrow=classic;startArrow=none;html=1;rounded=0;entryX=0.75;entryY=1;entryDx=0;entryDy=0;exitX=0.435;exitY=-0.017;exitDx=0;exitDy=0;exitPerimeter=0;startFill=0;" parent="1" edge="1">
          <mxGeometry width="50" height="50" relative="1" as="geometry">
            <mxPoint x="238" y="319.49" as="sourcePoint" />
            <mxPoint x="238.115" y="290" as="targetPoint" />
          </mxGeometry>
        </mxCell>
        <mxCell id="LIOro2nzg90wckjojLs--31" value="" style="endArrow=classic;startArrow=none;html=1;rounded=0;entryX=0.75;entryY=1;entryDx=0;entryDy=0;exitX=0.435;exitY=-0.017;exitDx=0;exitDy=0;exitPerimeter=0;startFill=0;" parent="1" edge="1">
          <mxGeometry width="50" height="50" relative="1" as="geometry">
            <mxPoint x="439" y="320.49" as="sourcePoint" />
            <mxPoint x="439.115" y="291" as="targetPoint" />
          </mxGeometry>
        </mxCell>
        <mxCell id="LIOro2nzg90wckjojLs--32" value="" style="endArrow=classic;startArrow=none;html=1;rounded=0;entryX=0.75;entryY=1;entryDx=0;entryDy=0;exitX=0.435;exitY=-0.017;exitDx=0;exitDy=0;exitPerimeter=0;startFill=0;" parent="1" edge="1">
          <mxGeometry width="50" height="50" relative="1" as="geometry">
            <mxPoint x="647" y="320.49" as="sourcePoint" />
            <mxPoint x="647.115" y="291" as="targetPoint" />
          </mxGeometry>
        </mxCell>
        <mxCell id="LIOro2nzg90wckjojLs--33" value="&lt;span style=&quot;font-size: 12px;&quot;&gt;&lt;b&gt;PARALLEL / HIGH BANDWITH INTERCONNECT&lt;/b&gt;&lt;/span&gt;" style="rounded=0;whiteSpace=wrap;html=1;fillColor=#F6D6C2;strokeColor=#D47264;fontSize=15;" parent="1" vertex="1">
          <mxGeometry x="200" y="400" width="570" height="40" as="geometry" />
        </mxCell>
        <mxCell id="LIOro2nzg90wckjojLs--34" value="&lt;b&gt;LOCAL MEMORY&lt;/b&gt;" style="whiteSpace=wrap;html=1;fillColor=light-dark(#d1d1d1, #202020);strokeColor=#36393d;" parent="1" vertex="1">
          <mxGeometry x="200" y="320" width="160" height="30" as="geometry" />
        </mxCell>
        <mxCell id="LIOro2nzg90wckjojLs--35" value="&lt;b&gt;LOCAL MEMORY&lt;/b&gt;" style="whiteSpace=wrap;html=1;fillColor=light-dark(#d1d1d1, #202020);strokeColor=#36393d;" parent="1" vertex="1">
          <mxGeometry x="400" y="320" width="160" height="30" as="geometry" />
        </mxCell>
        <mxCell id="LIOro2nzg90wckjojLs--36" value="&lt;b&gt;LOCAL MEMORY&lt;/b&gt;" style="whiteSpace=wrap;html=1;fillColor=light-dark(#d1d1d1, #202020);strokeColor=#36393d;" parent="1" vertex="1">
          <mxGeometry x="610" y="320" width="160" height="30" as="geometry" />
        </mxCell>
        <mxCell id="LIOro2nzg90wckjojLs--38" value="" style="endArrow=classic;startArrow=classic;html=1;rounded=0;entryX=0.75;entryY=1;entryDx=0;entryDy=0;startFill=1;" parent="1" edge="1">
          <mxGeometry width="50" height="50" relative="1" as="geometry">
            <mxPoint x="280" y="400" as="sourcePoint" />
            <mxPoint x="280.115" y="351" as="targetPoint" />
          </mxGeometry>
        </mxCell>
        <mxCell id="LIOro2nzg90wckjojLs--39" value="" style="endArrow=classic;startArrow=classic;html=1;rounded=0;entryX=0.75;entryY=1;entryDx=0;entryDy=0;startFill=1;" parent="1" edge="1">
          <mxGeometry width="50" height="50" relative="1" as="geometry">
            <mxPoint x="480" y="399" as="sourcePoint" />
            <mxPoint x="480.115" y="350" as="targetPoint" />
          </mxGeometry>
        </mxCell>
        <mxCell id="LIOro2nzg90wckjojLs--40" value="" style="endArrow=classic;startArrow=classic;html=1;rounded=0;entryX=0.75;entryY=1;entryDx=0;entryDy=0;startFill=1;" parent="1" edge="1">
          <mxGeometry width="50" height="50" relative="1" as="geometry">
            <mxPoint x="690" y="399" as="sourcePoint" />
            <mxPoint x="690.115" y="350" as="targetPoint" />
          </mxGeometry>
        </mxCell>
        <mxCell id="LIOro2nzg90wckjojLs--41" value="" style="endArrow=classic;startArrow=classic;html=1;rounded=0;entryX=0.75;entryY=1;entryDx=0;entryDy=0;startFill=1;" parent="1" edge="1">
          <mxGeometry width="50" height="50" relative="1" as="geometry">
            <mxPoint x="479.58000000000004" y="489" as="sourcePoint" />
            <mxPoint x="479.69500000000005" y="440" as="targetPoint" />
          </mxGeometry>
        </mxCell>
        <mxCell id="LIOro2nzg90wckjojLs--42" value="&lt;b&gt;DEDICATED / UNIFIED MEMORY&lt;/b&gt;" style="whiteSpace=wrap;html=1;fillColor=light-dark(#d1d1d1, #202020);strokeColor=#36393d;" parent="1" vertex="1">
          <mxGeometry x="370" y="490" width="220" height="30" as="geometry" />
        </mxCell>
        <mxCell id="LIOro2nzg90wckjojLs--43" value="" style="endArrow=classic;startArrow=classic;html=1;rounded=0;entryX=0.75;entryY=1;entryDx=0;entryDy=0;startFill=1;" parent="1" edge="1">
          <mxGeometry width="50" height="50" relative="1" as="geometry">
            <mxPoint x="480" y="569" as="sourcePoint" />
            <mxPoint x="480.115" y="520" as="targetPoint" />
          </mxGeometry>
        </mxCell>
        <mxCell id="LIOro2nzg90wckjojLs--44" value="&lt;span style=&quot;font-size: 12px;&quot;&gt;&lt;b&gt;SYSTEM INTERCONNECT&lt;/b&gt;&lt;/span&gt;" style="rounded=0;whiteSpace=wrap;html=1;fillColor=#F6D6C2;strokeColor=#D47264;fontSize=15;" parent="1" vertex="1">
          <mxGeometry x="200" y="570" width="570" height="40" as="geometry" />
        </mxCell>
        <mxCell id="LIOro2nzg90wckjojLs--45" value="" style="endArrow=classic;startArrow=classic;html=1;rounded=0;entryX=0.75;entryY=1;entryDx=0;entryDy=0;startFill=1;" parent="1" edge="1">
          <mxGeometry width="50" height="50" relative="1" as="geometry">
            <mxPoint x="480" y="660" as="sourcePoint" />
            <mxPoint x="480.115" y="611" as="targetPoint" />
          </mxGeometry>
        </mxCell>
        <mxCell id="LIOro2nzg90wckjojLs--46" value="&lt;b&gt;ON-CHIP MEMORY&lt;/b&gt;" style="whiteSpace=wrap;html=1;fillColor=light-dark(#d1d1d1, #202020);strokeColor=#36393d;" parent="1" vertex="1">
          <mxGeometry x="375" y="660" width="220" height="30" as="geometry" />
        </mxCell>
      </root>
    </mxGraphModel>
  </diagram>
</mxfile>
